Coordinates
version=1
nRows=25
nColumns=33
inDegrees=yes

Units are S.I. units (second, meters, Newtons, ...)
Angles are in degrees.

endheader
time	ground_thorax_rot_x	ground_thorax_rot_y	ground_thorax_rot_z	ground_thorax_tx	ground_thorax_ty	ground_thorax_tz	clav_prot_r	clav_elev_r	scapula_abduction_r	scapula_elevation_r	scapula_upward_rot_r	scapula_winging_r	shoulder_elv_r	plane_of_elev_r	axial_rot_r	elbow_flexion_r	pro_sup_r	wrist_flex_r	wrist_dev_r	clav_prot_l	clav_elev_l	scapula_abduction_l	scapula_elevation_l	scapula_upward_rot_l	scapula_winging_l	shoulder_elv_l	plane_of_elev_l	axial_rot_l	elbow_flexion_l	pro_sup_l	wrist_flex_l	wrist_dev_l	
0.8800	3.271270	-7.903133	9.900082	-0.115696	1.029343	0.012373	3.291456	-8.749187	4.345140	-0.522658	-3.045710	0.748646	37.359562	5.694561	15.941782	61.316584	42.436438	8.926477	18.644829	2.142394	-13.868716	0.929092	-0.224982	-18.492090	-6.023637	50.632811	3.545891	-6.571687	64.823118	41.819799	15.860108	-6.311839	
0.8900	3.320230	-7.837946	9.855422	-0.115393	1.029457	0.012403	3.361245	-8.785270	4.518700	-0.602926	-2.938023	0.694276	37.385488	5.907892	15.852340	60.880733	42.384703	8.812091	18.637479	2.224679	-13.987499	0.766516	-0.068490	-18.401012	-6.011865	50.635990	3.714347	-6.604868	64.491064	41.825270	15.834506	-6.413267	
0.9000	3.367345	-7.772502	9.814085	-0.115095	1.029557	0.012434	3.439012	-8.821977	4.706911	-0.684114	-2.829241	0.635362	37.412008	6.125655	15.753684	60.427507	42.325095	8.703336	18.633809	2.310285	-14.095702	0.596796	0.080496	-18.303318	-5.993762	50.629367	3.901493	-6.633932	64.144669	41.800566	15.818807	-6.510411	
0.9100	3.405202	-7.712260	9.761158	-0.114782	1.029650	0.012442	3.532613	-8.864312	4.924311	-0.771294	-2.717891	0.568890	37.432260	6.362445	15.618640	59.940406	42.243380	8.603573	18.634019	2.400015	-14.183895	0.416856	0.215490	-18.192700	-5.963582	50.597719	4.138892	-6.629268	63.768524	41.712114	15.817341	-6.598148	
0.9200	3.435635	-7.655126	9.705049	-0.114468	1.029727	0.012434	3.645538	-8.908656	5.176453	-0.860871	-2.604397	0.491746	37.449329	6.616632	15.450523	59.414101	42.137915	8.515138	18.640954	2.496526	-14.249569	0.221740	0.334785	-18.067295	-5.918810	50.539026	4.425201	-6.598365	63.357648	41.545839	15.835826	-6.676931	
0.9300	3.455325	-7.602109	9.647665	-0.114168	1.029759	0.012406	3.795676	-8.937894	5.491871	-0.935534	-2.491076	0.388745	37.458283	6.900078	15.228842	58.838796	41.979908	8.446092	18.655880	2.608686	-14.269515	-0.006417	0.420132	-17.916287	-5.844000	50.434549	4.781992	-6.528387	62.898231	41.232876	15.884737	-6.756784	
0.9400	3.470404	-7.551877	9.595276	-0.113887	1.029765	0.012366	3.976959	-8.959326	5.860230	-1.001886	-2.378673	0.265601	37.468881	7.204724	14.966870	58.218691	41.784258	8.394307	18.682642	2.734079	-14.257964	-0.262360	0.483277	-17.744829	-5.746446	50.293289	5.190572	-6.433200	62.396676	40.787299	15.962836	-6.828287	
0.9500	3.478788	-7.505132	9.545068	-0.113635	1.029739	0.012319	4.196891	-8.968492	6.292950	-1.054313	-2.270283	0.116839	37.486477	7.536551	14.662633	57.555468	41.544616	8.362891	18.728764	2.874955	-14.211956	-0.551394	0.523978	-17.547067	-5.623062	50.116057	5.648187	-6.310032	61.853525	40.164403	16.074566	-6.883942	
0.9600	3.489832	-7.459642	9.498927	-0.113401	1.029736	0.012275	4.430391	-8.988435	6.750001	-1.116364	-2.162201	-0.036898	37.523268	7.878616	14.347660	56.862655	41.304919	8.339925	18.798829	3.019039	-14.169117	-0.848490	0.571872	-17.340163	-5.497308	49.931272	6.118450	-6.185324	61.290545	39.446194	16.206440	-6.902154	
0.9700	3.499744	-7.416942	9.444184	-0.113178	1.029749	0.012234	4.678163	-9.012779	7.234690	-1.184571	-2.048672	-0.199609	37.574756	8.242268	14.018037	56.141568	41.061280	8.323918	18.898820	3.164997	-14.124685	-1.152066	0.623713	-17.121185	-5.367840	49.742541	6.611576	-6.053972	60.712606	38.615830	16.356838	-6.879559	
0.9800	3.515186	-7.373995	9.385654	-0.112954	1.029815	0.012202	4.917470	-9.054566	7.711561	-1.274375	-1.923112	-0.355941	37.641058	8.614149	13.698126	55.400938	40.849211	8.303264	19.033619	3.301230	-14.105635	-1.438138	0.698510	-16.907528	-5.253812	49.572806	7.103919	-5.943134	60.134958	37.751381	16.511671	-6.801214	
0.9900	3.530199	-7.332616	9.322947	-0.112733	1.029912	0.012175	5.159872	-9.096379	8.199102	-1.369233	-1.785792	-0.518246	37.710616	9.004785	13.372236	54.637927	40.648671	8.281588	19.206143	3.431184	-14.093220	-1.713867	0.780102	-16.693951	-5.145429	49.412919	7.610765	-5.846896	59.554210	36.806669	16.670476	-6.673257	
1.0000	3.551199	-7.290932	9.279883	-0.112521	1.030040	0.012153	5.403028	-9.130110	8.690661	-1.460016	-1.640638	-0.687064	37.776046	9.400385	13.044643	53.860023	40.465973	8.256577	19.413292	3.552212	-14.089276	-1.971560	0.864330	-16.493519	-5.046595	49.262394	8.117767	-5.790295	58.977122	35.805661	16.818013	-6.499051	
1.0100	3.575683	-7.250260	9.256339	-0.112317	1.030183	0.012129	5.654121	-9.145642	9.197583	-1.536825	-1.488106	-0.869101	37.832365	9.803150	12.705616	53.072250	40.283124	8.230669	19.638112	3.669894	-14.078273	-2.222185	0.938377	-16.300199	-4.947531	49.108886	8.635033	-5.762154	58.408631	34.753514	16.950298	-6.306775	
1.0200	3.605651	-7.211591	9.257896	-0.112121	1.030341	0.012107	5.910019	-9.141973	9.715177	-1.599415	-1.326874	-1.063519	37.877173	10.207838	12.360818	52.281513	40.106706	8.201456	19.874923	3.781283	-14.061547	-2.459775	1.002056	-16.117612	-4.850965	48.953147	9.155434	-5.769844	57.858971	33.680513	17.057717	-6.103579	
1.0300	3.639830	-7.173446	9.270568	-0.111921	1.030538	0.012083	6.157880	-9.137352	10.224428	-1.666294	-1.153363	-1.256975	37.922501	10.607212	12.023498	51.502107	39.948583	8.164577	20.101808	3.886385	-14.051932	-2.685315	1.069835	-15.941598	-4.761524	48.802886	9.669978	-5.801668	57.345948	32.664054	17.137888	-5.909352	
1.0400	3.675197	-7.134201	9.285408	-0.111714	1.030779	0.012059	6.390346	-9.136313	10.715475	-1.743995	-0.962401	-1.444759	37.969444	11.001278	11.698861	50.741643	39.816184	8.116767	20.310739	3.983954	-14.052730	-2.897206	1.146006	-15.770056	-4.681021	48.663242	10.179793	-5.854381	56.879596	31.741690	17.186645	-5.731783	
1.0500	3.710086	-7.090588	9.284171	-0.111483	1.031083	0.012032	6.588921	-9.157560	11.161271	-1.853233	-0.746446	-1.610993	38.027091	11.385752	11.399510	50.014557	39.725034	8.052238	20.482963	4.073976	-14.076971	-3.096075	1.244497	-15.600430	-4.614177	48.544483	10.682449	-5.915806	56.476744	30.996052	17.204200	-5.586663	
1.0600	3.737755	-7.046746	9.261170	-0.111241	1.031407	0.012000	6.769640	-9.180213	11.588785	-1.974963	-0.504338	-1.772728	38.084188	11.780513	11.099203	49.316020	39.653388	7.978602	20.630550	4.161894	-14.097272	-3.293993	1.343291	-15.421944	-4.545496	48.433020	11.205029	-5.975233	56.128208	30.338746	17.194762	-5.466925	
1.0700	3.762786	-7.000314	9.232201	-0.110980	1.031741	0.011961	6.933409	-9.200744	11.993698	-2.100726	-0.248382	-1.928790	38.145894	12.172363	10.792062	48.671831	39.602310	7.901944	20.744763	4.250703	-14.109965	-3.494586	1.435890	-15.240700	-4.472442	48.320425	11.737916	-6.035504	55.847373	29.760854	17.149827	-5.372485	
1.0800	3.779379	-6.956757	9.196456	-0.110730	1.032047	0.011915	7.104337	-9.197395	12.414642	-2.208573	0.017713	-2.100785	38.205360	12.581059	10.448321	48.074119	39.555351	7.830483	20.837677	4.344911	-14.092030	-3.708631	1.504954	-15.045188	-4.381579	48.195558	12.302487	-6.094869	55.610950	29.157802	17.057955	-5.285188	
1.0900	3.787892	-6.919558	9.172695	-0.110501	1.032279	0.011854	7.308673	-9.140664	12.887847	-2.265128	0.278958	-2.312793	38.254489	13.009818	10.027622	47.536158	39.509945	7.773293	20.903790	4.450672	-14.012020	-3.946935	1.520263	-14.834328	-4.256196	48.029043	12.914476	-6.156193	55.410715	28.442859	16.875473	-5.191942	
1.1000	3.786672	-6.893279	9.147441	-0.110308	1.032440	0.011777	7.556110	-9.032831	13.431221	-2.273149	0.537372	-2.570738	38.304324	13.470549	9.527673	47.051680	39.464853	7.732714	20.950332	4.563706	-13.877239	-4.204314	1.492592	-14.600398	-4.100548	47.828352	13.577176	-6.214895	55.233465	27.585741	16.596873	-5.082519	
1.1100	3.781866	-6.883842	9.139729	-0.110152	1.032545	0.011684	7.860562	-8.881876	14.056984	-2.229410	0.767509	-2.875580	38.376230	13.948828	8.943046	46.641865	39.445770	7.711309	20.961192	4.677546	-13.697263	-4.467131	1.427195	-14.353052	-3.923685	47.592089	14.260358	-6.277271	55.096627	26.588614	16.171004	-4.948466	
1.1200	3.778323	-6.886906	9.129880	-0.110037	1.032668	0.011583	8.188709	-8.732825	14.717516	-2.181344	0.983605	-3.193627	38.497154	14.436228	8.335785	46.298121	39.464366	7.696609	20.939902	4.778529	-13.528777	-4.710399	1.376686	-14.098719	-3.757504	47.364911	14.934129	-6.341544	55.003630	25.591309	15.648615	-4.805359	
